# xmcd
#
# Track frame offsets:
#	150
#	32046
#	54001
#	73631
#	154971
#	184073
#	210911
#	239426
#	309338
#
# Disc length: 4661 seconds
#
# Revision: 1
# Processed by: cddbd v1.5PL3 Copyright (c) Steve Scherf et al.
# Submitted via: EasyCDDAExtractor 6.5.0.3
#
DISCID=6e123309
DTITLE=John Mayall - 70th Birthday Concert disc 2
DYEAR=2003
DGENRE=Blues
TTITLE0=Please Mr Lofton
TTITLE1=Hideaway
TTITLE2=All Your Love
TTITLE3=Have You Heard
TTITLE4=Hoochie Coochie Man
TTITLE5=I´m Tore Down
TTITLE6=It Ain´t Right
TTITLE7=California
TTITLE8=Talk To Your Daughter
EXTD=YEAR: 2003\n
EXTT0=
EXTT1=
EXTT2=
EXTT3=
EXTT4=
EXTT5=
EXTT6=
EXTT7=
EXTT8=
PLAYORDER=
